<svg width="26" height="26" viewBox="0 0 26 26" fill="none" xmlns="http://www.w3.org/2000/svg">
<path d="M5.26981 10.0127C5.26981 10.0127 2.55961 11.0667 2.10791 14.7556" stroke="#747474" stroke-width="1.40529"/>
<path d="M20.0254 10.0127C20.0254 10.0127 22.7356 11.0667 23.1873 14.7556" stroke="#747474" stroke-width="1.40529"/>
<path d="M9.4856 10.0127C9.4856 10.0127 12.0151 10.6275 12.6475 13.7016" stroke="#747474" stroke-width="1.40529"/>
<path d="M15.8096 10.0127C15.8096 10.0127 13.2801 10.6275 12.6477 13.7016" stroke="#747474" stroke-width="1.40529"/>
<path d="M10.5396 17.9175C10.5396 17.9175 8.32626 18.3127 7.37769 21.0794" stroke="#747474" stroke-width="1.40529"/>
<path d="M14.7556 17.9175C14.7556 17.9175 16.9689 18.3127 17.9175 21.0794" stroke="#747474" stroke-width="1.40529"/>
<path d="M12.6476 18.9715C14.1028 18.9715 15.2825 17.7918 15.2825 16.3366C15.2825 14.8814 14.1028 13.7017 12.6476 13.7017C11.1924 13.7017 10.0127 14.8814 10.0127 16.3366C10.0127 17.7918 11.1924 18.9715 12.6476 18.9715Z" stroke="#747474" stroke-width="1.40529"/>
<path d="M17.9175 10.5396C19.6638 10.5396 21.0794 9.12399 21.0794 7.37772C21.0794 5.63145 19.6638 4.21582 17.9175 4.21582C16.1712 4.21582 14.7556 5.63145 14.7556 7.37772C14.7556 9.12399 16.1712 10.5396 17.9175 10.5396Z" stroke="#747474" stroke-width="1.40529"/>
<path d="M7.37772 10.5396C9.12399 10.5396 10.5396 9.12399 10.5396 7.37772C10.5396 5.63145 9.12399 4.21582 7.37772 4.21582C5.63145 4.21582 4.21582 5.63145 4.21582 7.37772C4.21582 9.12399 5.63145 10.5396 7.37772 10.5396Z" stroke="#747474" stroke-width="1.40529"/>
</svg>
